<svg width="195" height="71" viewBox="0 0 195 71" fill="none" xmlns="http://www.w3.org/2000/svg">
<path d="M22.185 32.4C36.54 32.4 44.055 26.46 44.055 16.335V0H28.35V16.65C28.35 20.52 25.695 22.68 21.825 22.68C17.865 22.68 15.435 20.475 15.345 17.325V17.01H0V17.28C0.09 26.19 8.19 32.4 22.185 32.4Z" fill="black"/>
<path d="M68.6929 32.4C83.1829 32.4 91.2379 26.325 91.2379 15.75V0H75.8479V16.2C75.8479 20.205 73.1479 22.41 68.9629 22.41C64.8229 22.41 62.1229 20.205 62.1229 16.2V0H46.3279V15.75C46.3279 26.325 54.2929 32.4 68.6929 32.4Z" fill="black"/>
<path d="M93.6067 31.5H106.387L106.342 15.615V12.375L107.692 15.615L114.442 31.5H125.872L132.622 15.615L133.972 12.375V15.615L133.927 31.5H147.202V0H127.897L120.427 17.82L116.647 8.91L112.912 0H93.6067V31.5Z" fill="black"/>
<path d="M149.714 31.5H165.509V21.96H180.449C189.134 21.96 194.534 17.775 194.534 10.98C194.534 4.14 189.134 0 180.404 0H149.714V31.5ZM175.274 8.46C177.569 8.46 178.919 9.54 178.919 11.385C178.919 13.185 177.569 14.22 175.274 14.22H165.509V8.46H175.274Z" fill="black"/>
<path d="M25.805 70.4C39.89 70.4 48.26 65.765 48.26 59.105C48.26 50.735 35.75 50.06 26.93 49.295C22.115 48.89 18.38 48.485 18.38 46.775C18.38 45.56 20 44.525 24.32 44.525C28.64 44.525 31.34 45.83 32.24 48.125H47.45C45.38 41.375 37.37 37.1 23.915 37.1C9.38 37.1 2 41.825 2 48.395C2 57.305 15.32 57.62 24.185 58.295C28.64 58.655 31.97 59.06 31.97 60.725C31.97 62.075 29.99 63.155 25.445 63.155C20.99 63.155 18.38 61.895 17.525 59.555H2.045C3.935 66.395 12.26 70.4 25.805 70.4Z" fill="black"/>
<path d="M50.0354 69.5H65.8304V58.07H79.7804V69.5H95.5304V38H79.7804V49.07H65.8304V38H50.0354V69.5Z" fill="black"/>
<path d="M122.041 70.445C136.531 70.445 146.746 63.875 146.746 53.75C146.746 43.625 136.531 37.055 122.041 37.055C107.551 37.055 97.336 43.625 97.336 53.75C97.336 63.875 107.551 70.445 122.041 70.445ZM122.041 60.905C117.181 60.905 113.716 58.385 113.716 53.795C113.716 49.205 117.181 46.73 122.041 46.73C126.901 46.73 130.366 49.205 130.366 53.795C130.366 58.385 126.901 60.905 122.041 60.905Z" fill="black"/>
<path d="M162.389 69.5H178.184V46.955H194.339V38H146.234V46.955H162.389V69.5Z" fill="black"/>
</svg>
