<svg version="1.1" id="Layer_1" xmlns="http://www.w3.org/2000/svg" xmlns:xlink="http://www.w3.org/1999/xlink" x="0px" y="0px" viewBox="0 0 281.083 38.254" style="enable-background:new 0 0 281.083 38.254;" xml:space="preserve">
 <style type="text/css">
  .st0{fill-rule:evenodd;clip-rule:evenodd;}
 </style>
 <g>
  <g>
   <path id="XMLID_00000125561267698147723470000010077616572601078945_" class="st0" d="M68.828,33.461
			c-4.69,0-7.923-3.909-7.923-9.017c0-5.108,3.232-9.018,7.923-9.018c4.691,0,7.923,3.91,7.923,9.018
			C76.75,29.552,73.571,33.461,68.828,33.461 M68.828,11.152c-6.515,0-12.509,5.577-12.509,13.292
			c0,7.714,5.995,13.291,12.509,13.291c6.568,0,12.509-5.577,12.509-13.291C81.337,16.729,75.342,11.152,68.828,11.152">
   </path>
   <path id="XMLID_00000116933800679511640780000015091659837155486879_" class="st0" d="M115.216,11.152
			c-4.013,0-6.568,2.236-7.975,4.161h-0.885c-1.512-2.132-3.858-4.161-7.297-4.161c-3.441,0-5.682,2.029-6.672,3.173h-0.73
			l-0.886-2.913h-3.023v26.01h4.587V22.596c0-4.785,2.919-7.491,6.306-7.491c4.483,0,5.109,4.734,5.109,9.781v12.536h4.586V22.233
			c0.158-4.578,3.024-7.127,6.307-7.127c4.483,0,5.108,4.734,5.108,9.781v12.536h4.588V23.325
			C124.338,16.146,121.21,11.152,115.216,11.152">
   </path>
   <path id="XMLID_00000015336176797008083780000009281728930737167752_" class="st0" d="M144.035,11.152
			c-4.306,0-6.64,2.081-7.626,3.224h-0.622l-0.934-2.964h-3.01v26.01h4.565V22.596c0-4.578,3.114-7.491,7.004-7.491
			c5.134,0,5.913,5.15,5.913,9.781v12.536h4.565V23.325C153.891,16.094,150.624,11.152,144.035,11.152">
   </path>
   <rect x="162.15" y="11.412" class="st0" width="4.561" height="26.01">
   </rect>
   <circle cx="164.431" cy="3.072" r="3.072">
   </circle>
   <path id="XMLID_00000016065976205845489920000014120800415842396583_" class="st0" d="M183.767,22.099
			c-2.555-0.678-5.004-1.511-5.004-3.909c0-2.138,1.876-3.493,4.274-3.493c2.762,0,4.794,1.771,4.794,3.701h4.222
			c0-3.597-3.179-7.401-9.017-7.401c-4.796,0-8.601,2.606-8.601,7.244c0,5.213,4.848,6.62,8.392,7.559
			c2.867,0.781,5.421,1.615,5.421,4.273c0,2.555-2.293,3.753-4.742,3.753c-2.867,0-5.629-1.669-5.629-4.899h-4.222
			c0,4.743,3.909,8.652,9.904,8.652c5.108,0,9.017-2.866,9.017-7.714C192.575,24.496,187.728,23.14,183.767,22.099">
   </path>
   <path id="XMLID_00000041262247333069504940000014497615440760201393_" class="st0" d="M202.743,21.681
			c0.835-4.17,3.756-6.828,7.616-6.828c3.913,0,6.521,2.815,7.147,6.828H202.743L202.743,21.681z M210.413,10.996
			c-6.522,0-12.365,5.004-12.365,13.083c0,8.132,5.842,13.5,12.416,13.5c4.748,0,9.234-2.814,11.216-7.558h-4.8
			c-1.252,2.033-3.442,3.336-6.417,3.336c-4.486,0-7.512-3.024-7.929-7.871h19.719C222.776,15.635,216.672,10.996,210.413,10.996
			L210.413,10.996L210.413,10.996z">
   </path>
   <path id="XMLID_00000178166248038304648230000011052989794453358778_" class="st0" d="M240.887,11.152
			c-4.306,0-6.64,2.081-7.626,3.224h-0.622l-0.935-2.964h-3.009v26.01h4.565V22.596c0-4.578,3.113-7.491,7.004-7.491
			c5.135,0,5.914,5.15,5.914,9.781v12.536h4.565V23.325C250.743,16.094,247.475,11.152,240.887,11.152">
   </path>
   <path id="XMLID_00000062900218506744936110000013509870542877759413_" class="st0" d="M269.194,33.396
			c-3.892,0-7.785-3.383-7.785-9.004c0-5.622,3.892-9.005,7.785-9.005c3.425,0,7.474,2.603,7.474,9.005
			C276.667,30.794,272.619,33.396,269.194,33.396L269.194,33.396L269.194,33.396z M276.667,0.448v14.834
			c-1.661-2.447-4.204-4.164-7.837-4.164c-6.592,0-11.989,5.569-11.989,13.273c0,7.703,5.397,13.272,11.989,13.272
			c3.373,0,5.812-1.456,7.421-3.591h0.831l0.985,3.331h3.011V0.448H276.667L276.667,0.448z">
   </path>
  </g>
  <path d="M30.777,0.519H6.449c-3.56,0-6.445,2.885-6.445,6.445v24.327c0,3.559,2.885,6.444,6.445,6.444h2.719h8.359v-5.336
		c0-5.133-0.635-9.08-4.452-10.22v-4.205c6.207,0.555,9.29,5.177,9.29,12.769v6.992h5.056h3.355c3.559,0,6.444-2.885,6.444-6.444
		V6.963C37.221,3.404,34.336,0.519,30.777,0.519 M18.798,13.962c-1.97,0-3.567-1.597-3.567-3.567c0-1.969,1.597-3.566,3.567-3.566
		c1.97,0,3.567,1.597,3.567,3.566C22.365,12.364,20.769,13.962,18.798,13.962">
  </path>
 </g>
</svg>