<svg width="713" height="92" viewBox="0 0 713 92" fill="none" xmlns="http://www.w3.org/2000/svg">
<path d="M48.248 0.399994C63.4373 0.399994 75.1707 4.28266 83.448 12.048C91.7253 19.8133 95.864 31.12 95.864 45.968C95.864 60.816 91.7253 72.1227 83.448 79.888C75.1707 87.6533 63.4373 91.536 48.248 91.536C33.0587 91.536 21.3253 87.696 13.048 80.016C4.85601 72.2507 0.76001 60.9013 0.76001 45.968C0.76001 31.0347 4.85601 19.728 13.048 12.048C21.3253 4.28266 33.0587 0.399994 48.248 0.399994ZM48.248 21.52C42.1893 21.52 37.5813 23.3547 34.424 27.024C31.2667 30.6933 29.688 35.6427 29.688 41.872V50.064C29.688 56.2933 31.2667 61.2427 34.424 64.912C37.5813 68.5813 42.1893 70.416 48.248 70.416C54.3067 70.416 58.9147 68.5813 62.072 64.912C65.3147 61.2427 66.936 56.2933 66.936 50.064V41.872C66.936 35.6427 65.3147 30.6933 62.072 27.024C58.9147 23.3547 54.3067 21.52 48.248 21.52Z" fill="black"/>
<path d="M188.025 90V58.256C188.025 54.3307 188.153 50.32 188.409 46.224C188.75 42.0427 189.092 38.544 189.433 35.728C189.774 32.912 189.988 31.12 190.073 30.352H189.561L173.305 90H151.161L134.777 30.48H134.265C134.35 31.248 134.564 33.04 134.905 35.856C135.332 38.5867 135.716 42.0427 136.057 46.224C136.398 50.32 136.569 54.3307 136.569 58.256V90H110.585V1.936H150.521L163.833 52.752H164.345L177.529 1.936H216.057V90H188.025Z" fill="black"/>
<path d="M297.508 90L260.516 47.248V90H234.532V1.936H259.236L296.228 45.328V1.936H322.212V90H297.508Z" fill="black"/>
<path d="M343.717 90V1.936H372.005V90H343.717Z" fill="black"/>
<path d="M393.467 1.936H421.755V67.472H466.939V90H393.467V1.936Z" fill="black"/>
<path d="M481.402 90V1.936H509.69V90H481.402Z" fill="black"/>
<path d="M581.84 24.464V90H553.552V24.464H524.624V1.936H610.64V24.464H581.84Z" fill="black"/>
<path d="M684.199 90V56.592H653.095V90H624.807V1.936H653.095V34.064H684.199V1.936H712.487V90H684.199Z" fill="black"/>
</svg>
