<svg width="118" height="48" viewBox="0 0 118 48" fill="none" xmlns="http://www.w3.org/2000/svg">
<path d="M46.9135 15.2533C48.0469 14.5717 49.2469 14.2261 50.5137 14.2261V21.4167H48.5802C47.0849 21.4167 45.961 21.7047 45.2181 22.2903C44.4752 22.8759 44.0943 23.884 44.0943 25.324V33.5995H37.3987V14.3989H44.0943V17.9894C44.8372 16.847 45.7801 15.9349 46.9135 15.2533Z" fill="#221F20"/>
<path d="M63.2668 15.0329C64.2478 15.6185 64.9812 16.4153 65.4574 17.4426V14.3993H72.1149V33.5999H65.4574V30.5566C64.9812 31.5838 64.2478 32.3902 63.2668 32.9662C62.2858 33.5518 61.1238 33.8399 59.7809 33.8399C58.2665 33.8399 56.895 33.4462 55.6759 32.659C54.4568 31.8718 53.4948 30.7294 52.79 29.2317C52.0852 27.7341 51.7328 25.9868 51.7328 23.9804C51.7328 21.9739 52.0852 20.2266 52.79 18.7386C53.4948 17.2506 54.4568 16.1177 55.6759 15.3305C56.895 14.5433 58.2665 14.1497 59.7809 14.1497C61.1143 14.1593 62.2762 14.4473 63.2668 15.0329ZM59.457 21.0907C58.8094 21.7915 58.4855 22.7515 58.4855 23.9804C58.4855 25.238 58.8094 26.2076 59.457 26.9084C60.1047 27.6093 60.9428 27.9549 61.9905 27.9549C62.9906 27.9549 63.8097 27.5997 64.4668 26.8892C65.124 26.1788 65.4478 25.2092 65.4478 23.9804C65.4478 22.7707 65.1145 21.8107 64.4668 21.1003C63.8097 20.3898 62.981 20.0346 61.9905 20.0346C60.9524 20.0442 60.1047 20.3898 59.457 21.0907Z" fill="#221F20"/>
<path d="M82.4678 8.2644V33.5996H75.7722V8.2644H82.4678Z" fill="#221F20"/>
<path d="M92.8589 8.2644V33.5996H86.1633V8.2644H92.8589Z" fill="#221F20"/>
<path d="M101.964 14.3987L106.041 25.151L109.812 14.3987H117.213L105.155 42.7772H97.8211L102.479 32.7832L94.5257 14.3987H101.964Z" fill="#221F20"/>
<path d="M30.7221 1.45779C25.2647 -0.942284 19.9406 0.132949 15.2355 1.07378C10.9401 1.9378 7.23509 2.68663 3.66346 1.12178L1.05379 7.18916C6.50172 9.58924 11.8353 8.514 16.5308 7.56358C19.5691 6.94916 22.3216 6.40194 24.9218 6.68035C24.0646 8.76361 23.1884 11.0005 22.2645 13.4486C21.3406 15.8774 20.3787 18.4983 19.3405 21.4168C17.95 21.6184 16.588 21.8968 15.2451 22.1656C12.1877 22.78 9.29235 23.3657 6.58743 23.0104L0.787109 22.2616L3.1682 27.6474L13.1592 48L18.9786 44.9375L11.2639 29.5578C13.0545 29.3562 14.8069 29.001 16.5308 28.6554C18.4357 28.2714 20.2453 27.9066 21.9978 27.7626L24.1122 27.5898L24.8266 25.5737C26.1219 21.9064 27.2838 18.7095 28.3887 15.8102C29.8268 12.0181 31.1412 8.75401 32.4175 5.81632L33.7318 2.78263L30.7221 1.45779Z" fill="#221F20"/>
</svg>
