<svg width="730" height="184" viewBox="0 0 730 184" fill="none" xmlns="http://www.w3.org/2000/svg">
<path d="M139.784 50.4426L90.6042 21.8249C86.178 19.3578 79.2928 19.3578 74.8667 21.8249L25.6869 50.4426C21.7526 53.403 18.31 59.3239 18.31 64.258V121C18.31 125.934 21.7526 131.855 26.1787 134.322L75.3585 162.94C79.7846 165.407 86.6698 165.407 91.096 162.94L140.276 134.322C144.702 131.855 148.144 125.934 148.144 121V64.258C147.653 59.3239 144.21 53.403 139.784 50.4426Z" fill="black"/>
<path d="M153.394 35.6281L97.5823 3.68566C88.8069 -1.22855 78.2765 -1.22855 69.5011 3.68566L14.0406 35.6281C5.26523 40.5423 0 50.0197 0 59.8481V124.084C0 134.263 5.26523 143.39 14.0406 148.304L69.5011 180.246C78.2765 185.161 88.8069 185.161 97.5823 180.246L153.043 148.304C161.818 143.39 167.083 133.912 167.083 124.084V59.8481C167.434 50.0197 161.818 40.5423 153.394 35.6281ZM127.419 62.3053C126.015 60.9012 123.908 60.1992 121.1 60.1992C110.219 60.1992 93.0191 55.987 84.5947 47.5626C83.8927 47.2116 83.1907 47.2116 82.8397 47.5626C74.4153 55.987 57.2155 60.1992 46.334 60.1992C43.5259 60.1992 41.4198 60.9012 40.0158 62.3053C38.6117 64.0603 37.9097 66.5174 37.5587 68.6235L135.843 108.288C137.598 108.99 138.651 110.745 138.651 112.5C138.651 113.905 139.353 121.978 134.088 127.945C131.982 130.402 128.121 133.21 121.451 133.21C112.676 133.21 102.146 136.019 95.1252 140.231C92.3171 141.986 90.211 143.741 89.1579 145.847C88.1049 147.602 86.3498 148.655 83.8927 148.655C81.7866 148.655 79.6805 147.602 78.9785 145.847C75.4683 139.178 59.3216 133.21 46.6851 133.21C40.0158 133.21 36.1546 130.402 34.0485 127.945C28.0812 121.627 28.4323 113.203 28.7833 112.149C29.1343 110.043 30.8894 108.288 32.9955 108.288H33.3465C35.8036 108.639 37.5587 110.745 37.2076 113.202C37.2076 114.607 37.2076 119.17 39.6648 121.978C41.0688 123.382 43.1749 124.084 45.983 124.084C56.8645 124.084 74.0643 128.296 82.4886 136.721C83.1907 137.072 83.8927 137.072 84.2437 136.721C92.6681 128.296 109.868 124.084 120.749 124.084C123.557 124.084 125.664 123.382 127.068 121.978C128.823 120.223 129.174 117.415 129.525 115.66L31.2404 75.9949L30.8894 75.6438C30.5383 75.2928 30.1873 75.2928 29.8363 74.9418C29.8363 74.9418 29.4853 74.5908 29.4853 74.2398C29.4853 73.8888 29.1343 73.5377 29.1343 73.5377C29.1343 73.1867 29.1343 73.1867 28.7833 72.8357C28.7833 72.4847 28.7833 72.4847 28.4323 72.1337C28.4323 71.0806 27.7302 62.6563 32.9955 56.689C35.1015 54.2319 38.9627 51.4238 45.632 51.4238C58.2686 51.4238 74.4153 45.4565 77.9254 38.7872C78.9785 37.0321 80.7336 35.9791 82.8397 35.9791C84.9458 35.9791 87.0518 37.0321 88.1049 38.7872C89.1579 40.8933 91.264 42.6484 94.0722 44.4035C100.741 48.2646 111.623 51.4238 120.398 51.4238C127.068 51.4238 130.929 54.2319 133.035 56.689C138.3 62.6563 137.949 71.0806 137.598 72.1337C137.247 74.2398 135.492 75.9949 133.386 75.9949H133.035C130.578 75.6438 128.823 73.5377 129.174 71.0806C129.876 69.6766 129.876 65.1134 127.419 62.3053Z" fill="#FFCC00"/>
<path d="M273.257 77.2214C273.257 70.8689 280.364 68.1464 286.05 68.1464C291.736 68.1464 297.895 69.9614 298.369 76.3139H303.581C302.16 65.8776 292.683 63.6089 285.576 63.6089C276.574 63.6089 268.045 68.6002 268.045 78.1289C268.045 89.4727 281.786 92.1952 290.788 95.3715C295.526 96.7328 299.317 99.4553 299.317 104.447C299.317 111.253 292.21 114.883 286.05 114.883C278.469 114.883 272.31 112.614 272.31 104.447H267.098C267.098 113.068 274.679 119.42 283.681 119.42C295.052 119.42 305.476 115.79 305.476 104.447C304.529 85.389 273.257 92.1952 273.257 77.2214V77.2214ZM370.862 111.253L340.064 64.5164H334.379V117.605H339.591V71.7764L369.441 117.605H375.6V64.5164H370.388L370.862 111.253V111.253ZM409.714 118.059H414.926V64.5164H409.714V118.059ZM463.255 64.5164H449.514V117.605H454.726V94.464H463.729C474.626 94.464 486.471 92.1952 486.471 79.4902C485.998 66.7851 473.679 64.5164 463.255 64.5164V64.5164ZM466.571 90.3802H454.252V69.0539H466.571C474.152 69.0539 480.786 71.3227 480.786 79.4902C480.312 88.1115 473.679 90.3802 466.571 90.3802V90.3802ZM531.009 114.429C516.795 114.429 512.531 102.178 512.531 91.2877C512.531 80.3977 516.795 68.1464 531.009 68.1464C537.169 68.1464 543.329 70.8689 544.276 77.2214H549.488C548.54 67.6927 540.012 63.6089 531.009 63.6089C514.426 63.6089 506.845 76.7677 506.845 91.2877C506.845 106.262 513.952 118.967 531.009 118.967C540.012 118.967 548.54 113.975 549.962 104.9H544.75C543.329 111.707 537.169 114.429 531.009 114.429V114.429ZM587.393 64.5164L565.124 117.605H570.336L576.021 103.085H603.502L609.662 117.605H615.348L593.079 64.5164H587.393V64.5164ZM577.917 99.0015L590.236 69.0539L602.081 99.0015H577.917ZM660.359 89.9265C666.993 88.1115 671.257 84.0277 671.257 78.1289C671.257 73.1377 669.362 69.0539 665.571 66.7852C661.307 64.0626 657.517 64.0626 652.305 64.0626H634.3V117.152H639.512V91.7415H653.252C663.202 91.7415 664.15 94.0103 665.098 106.262C665.571 109.892 665.571 113.975 666.993 117.152H672.678C670.309 113.975 670.783 109.892 669.836 101.27C668.888 95.8253 667.467 91.2877 660.359 89.9265V89.9265ZM649.462 88.1115H638.564V69.0539H649.936C655.148 69.0539 665.098 68.1464 665.098 78.5827C665.571 87.6577 656.569 88.1115 649.462 88.1115V88.1115ZM689.262 64.5164V69.0539H707.267V118.059H712.005V69.0539H729.536V64.5164H689.262V64.5164Z" fill="black"/>
</svg>
