<svg width="222" height="38" viewBox="0 0 222 38" fill="none" xmlns="http://www.w3.org/2000/svg">
<path d="M23.6818 17.8295L17.0341 18.2386C16.9205 17.6705 16.6761 17.1591 16.3011 16.7045C15.9261 16.2386 15.4318 15.8693 14.8182 15.5966C14.2159 15.3125 13.4943 15.1705 12.6534 15.1705C11.5284 15.1705 10.5796 15.4091 9.80683 15.8864C9.0341 16.3523 8.64774 16.9773 8.64774 17.7614C8.64774 18.3864 8.89774 18.9148 9.39774 19.3466C9.89774 19.7784 10.7557 20.125 11.9716 20.3864L16.7102 21.3409C19.2557 21.8636 21.1534 22.7045 22.4034 23.8636C23.6534 25.0227 24.2784 26.5455 24.2784 28.4318C24.2784 30.1477 23.7727 31.6534 22.7614 32.9489C21.7614 34.2443 20.3864 35.2557 18.6364 35.983C16.8977 36.6989 14.8921 37.0568 12.6193 37.0568C9.15342 37.0568 6.39206 36.3352 4.33524 34.892C2.28978 33.4375 1.09092 31.4602 0.738647 28.9602L7.88069 28.5852C8.0966 29.642 8.61933 30.4489 9.44888 31.0057C10.2784 31.5511 11.3409 31.8239 12.6364 31.8239C13.9091 31.8239 14.9318 31.5795 15.7046 31.0909C16.4886 30.5909 16.8864 29.9489 16.8977 29.1648C16.8864 28.5057 16.608 27.9659 16.0625 27.5455C15.5171 27.1136 14.6761 26.7841 13.5398 26.5568L9.00569 25.6534C6.44887 25.142 4.54547 24.2557 3.29547 22.9943C2.05683 21.733 1.43751 20.125 1.43751 18.1705C1.43751 16.4886 1.89206 15.0398 2.80115 13.8239C3.7216 12.608 5.01137 11.6705 6.67047 11.0114C8.34092 10.3523 10.2955 10.0227 12.5341 10.0227C15.8409 10.0227 18.4432 10.7216 20.3409 12.1193C22.25 13.517 23.3636 15.4205 23.6818 17.8295Z" fill="black"/>
<path d="M41.337 10.3636V15.8182H25.57V10.3636H41.337ZM29.1495 4.09091H36.4109V28.5C36.4109 29.1705 36.5131 29.6932 36.7177 30.0682C36.9222 30.4318 37.2063 30.6875 37.57 30.8352C37.945 30.983 38.3768 31.0568 38.8654 31.0568C39.2063 31.0568 39.5472 31.0284 39.8881 30.9716C40.229 30.9034 40.4904 30.8523 40.6722 30.8182L41.8143 36.2216C41.4506 36.3352 40.9393 36.4659 40.2802 36.6136C39.6211 36.7727 38.82 36.8693 37.8768 36.9034C36.1268 36.9716 34.5927 36.7386 33.2745 36.2045C31.9677 35.6705 30.9506 34.8409 30.2234 33.7159C29.4961 32.5909 29.1381 31.1705 29.1495 29.4545V4.09091Z" fill="black"/>
<path d="M56.1754 37.0568C53.5277 37.0568 51.2379 36.4943 49.3061 35.3693C47.3856 34.233 45.9027 32.6534 44.8572 30.6307C43.8118 28.5966 43.289 26.2386 43.289 23.5568C43.289 20.8523 43.8118 18.4886 44.8572 16.4659C45.9027 14.4318 47.3856 12.8523 49.3061 11.7273C51.2379 10.5909 53.5277 10.0227 56.1754 10.0227C58.8231 10.0227 61.1072 10.5909 63.0277 11.7273C64.9595 12.8523 66.4481 14.4318 67.4936 16.4659C68.539 18.4886 69.0618 20.8523 69.0618 23.5568C69.0618 26.2386 68.539 28.5966 67.4936 30.6307C66.4481 32.6534 64.9595 34.233 63.0277 35.3693C61.1072 36.4943 58.8231 37.0568 56.1754 37.0568ZM56.2095 31.4318C57.414 31.4318 58.4197 31.0909 59.2265 30.4091C60.0334 29.7159 60.6413 28.7727 61.0504 27.5795C61.4709 26.3864 61.6811 25.0284 61.6811 23.5057C61.6811 21.983 61.4709 20.625 61.0504 19.4318C60.6413 18.2386 60.0334 17.2955 59.2265 16.6023C58.4197 15.9091 57.414 15.5625 56.2095 15.5625C54.9936 15.5625 53.9709 15.9091 53.1413 16.6023C52.3231 17.2955 51.7038 18.2386 51.2834 19.4318C50.8743 20.625 50.6697 21.983 50.6697 23.5057C50.6697 25.0284 50.8743 26.3864 51.2834 27.5795C51.7038 28.7727 52.3231 29.7159 53.1413 30.4091C53.9709 31.0909 54.9936 31.4318 56.2095 31.4318Z" fill="black"/>
<path d="M72.3434 36.5455V10.3636H79.3831V14.9318H79.6559C80.1331 13.3068 80.9343 12.0795 82.0593 11.25C83.1843 10.4091 84.4797 9.98864 85.9456 9.98864C86.3093 9.98864 86.7013 10.0114 87.1218 10.0568C87.5422 10.1023 87.9115 10.1648 88.2297 10.2443V16.6875C87.8888 16.5852 87.4172 16.4943 86.8149 16.4148C86.2127 16.3352 85.6615 16.2955 85.1615 16.2955C84.0934 16.2955 83.1388 16.5284 82.2979 16.9943C81.4684 17.4489 80.8093 18.0852 80.3206 18.9034C79.8434 19.7216 79.6047 20.6648 79.6047 21.733V36.5455H72.3434Z" fill="black"/>
<path d="M101.257 37.0568C98.5639 37.0568 96.2457 36.5114 94.3025 35.4205C92.3707 34.3182 90.882 32.7614 89.8366 30.75C88.7911 28.7273 88.2684 26.3352 88.2684 23.5739C88.2684 20.8807 88.7911 18.517 89.8366 16.483C90.882 14.4489 92.3536 12.8636 94.2514 11.7273C96.1605 10.5909 98.3991 10.0227 100.967 10.0227C102.695 10.0227 104.303 10.3011 105.791 10.858C107.291 11.4034 108.598 12.2273 109.712 13.3295C110.837 14.4318 111.712 15.8182 112.337 17.4886C112.962 19.1477 113.274 21.0909 113.274 23.3182V25.3125H91.1661V20.8125H106.439C106.439 19.767 106.212 18.8409 105.757 18.0341C105.303 17.2273 104.672 16.5966 103.865 16.142C103.07 15.6761 102.143 15.4432 101.087 15.4432C99.9843 15.4432 99.0071 15.6989 98.1548 16.2102C97.3139 16.7102 96.6548 17.3864 96.1775 18.2386C95.7002 19.0795 95.4559 20.017 95.4445 21.0511V25.3295C95.4445 26.625 95.6832 27.7443 96.1605 28.6875C96.6491 29.6307 97.3366 30.358 98.223 30.8693C99.1093 31.3807 100.16 31.6364 101.376 31.6364C102.183 31.6364 102.922 31.5227 103.592 31.2955C104.263 31.0682 104.837 30.7273 105.314 30.2727C105.791 29.8182 106.155 29.2614 106.405 28.6023L113.121 29.0455C112.78 30.6591 112.081 32.0682 111.024 33.2727C109.979 34.4659 108.626 35.3977 106.967 36.0682C105.32 36.7273 103.416 37.0568 101.257 37.0568Z" fill="black"/>
<path d="M130.652 10.3636V15.8182H114.493V10.3636H130.652ZM118.192 36.5455V8.47159C118.192 6.57386 118.561 5 119.3 3.75C120.05 2.5 121.073 1.5625 122.368 0.9375C123.664 0.3125 125.135 0 126.783 0C127.897 0 128.914 0.085228 129.834 0.255684C130.766 0.426138 131.459 0.579547 131.914 0.715911L130.618 6.17046C130.334 6.07955 129.982 5.99432 129.561 5.91477C129.152 5.83523 128.732 5.79546 128.3 5.79546C127.232 5.79546 126.488 6.04546 126.067 6.54546C125.647 7.03409 125.436 7.72159 125.436 8.60796V36.5455H118.192Z" fill="black"/>
<path d="M133.648 36.5455V10.3636H140.688V14.9318H140.961C141.438 13.3068 142.239 12.0795 143.364 11.25C144.489 10.4091 145.785 9.98864 147.251 9.98864C147.614 9.98864 148.006 10.0114 148.427 10.0568C148.847 10.1023 149.217 10.1648 149.535 10.2443V16.6875C149.194 16.5852 148.722 16.4943 148.12 16.4148C147.518 16.3352 146.967 16.2955 146.467 16.2955C145.398 16.2955 144.444 16.5284 143.603 16.9943C142.773 17.4489 142.114 18.0852 141.626 18.9034C141.148 19.7216 140.91 20.6648 140.91 21.733V36.5455H133.648Z" fill="black"/>
<path d="M162.46 37.0568C159.812 37.0568 157.522 36.4943 155.59 35.3693C153.67 34.233 152.187 32.6534 151.142 30.6307C150.096 28.5966 149.573 26.2386 149.573 23.5568C149.573 20.8523 150.096 18.4886 151.142 16.4659C152.187 14.4318 153.67 12.8523 155.59 11.7273C157.522 10.5909 159.812 10.0227 162.46 10.0227C165.108 10.0227 167.392 10.5909 169.312 11.7273C171.244 12.8523 172.733 14.4318 173.778 16.4659C174.823 18.4886 175.346 20.8523 175.346 23.5568C175.346 26.2386 174.823 28.5966 173.778 30.6307C172.733 32.6534 171.244 34.233 169.312 35.3693C167.392 36.4943 165.108 37.0568 162.46 37.0568ZM162.494 31.4318C163.698 31.4318 164.704 31.0909 165.511 30.4091C166.318 29.7159 166.926 28.7727 167.335 27.5795C167.755 26.3864 167.965 25.0284 167.965 23.5057C167.965 21.983 167.755 20.625 167.335 19.4318C166.926 18.2386 166.318 17.2955 165.511 16.6023C164.704 15.9091 163.698 15.5625 162.494 15.5625C161.278 15.5625 160.255 15.9091 159.426 16.6023C158.608 17.2955 157.988 18.2386 157.568 19.4318C157.159 20.625 156.954 21.983 156.954 23.5057C156.954 25.0284 157.159 26.3864 157.568 27.5795C157.988 28.7727 158.608 29.7159 159.426 30.4091C160.255 31.0909 161.278 31.4318 162.494 31.4318Z" fill="black"/>
<path d="M185.889 21.4091V36.5455H178.628V10.3636H185.548V14.983H185.855C186.435 13.4602 187.406 12.2557 188.77 11.3693C190.133 10.4716 191.787 10.0227 193.73 10.0227C195.548 10.0227 197.133 10.4205 198.486 11.2159C199.838 12.0114 200.889 13.1477 201.639 14.625C202.389 16.0909 202.764 17.8409 202.764 19.875V36.5455H195.503V21.1705C195.514 19.5682 195.105 18.3182 194.275 17.4205C193.446 16.5114 192.304 16.0568 190.849 16.0568C189.872 16.0568 189.008 16.267 188.258 16.6875C187.52 17.108 186.94 17.7216 186.52 18.5284C186.111 19.3239 185.9 20.2841 185.889 21.4091Z" fill="black"/>
<path d="M220.973 10.3636V15.8182H205.206V10.3636H220.973ZM208.786 4.09091H216.047V28.5C216.047 29.1705 216.149 29.6932 216.354 30.0682C216.558 30.4318 216.843 30.6875 217.206 30.8352C217.581 30.983 218.013 31.0568 218.502 31.0568C218.843 31.0568 219.183 31.0284 219.524 30.9716C219.865 30.9034 220.127 30.8523 220.308 30.8182L221.451 36.2216C221.087 36.3352 220.576 36.4659 219.916 36.6136C219.257 36.7727 218.456 36.8693 217.513 36.9034C215.763 36.9716 214.229 36.7386 212.911 36.2045C211.604 35.6705 210.587 34.8409 209.86 33.7159C209.132 32.5909 208.774 31.1705 208.786 29.4545V4.09091Z" fill="black"/>
</svg>
